<?xml version="1.0" encoding="utf-8"?>
<!-- Svg Vector Icons : http://www.onlinewebfonts.com/icon -->
<!DOCTYPE svg PUBLIC "-//W3C//DTD SVG 1.1//EN" "http://www.w3.org/Graphics/SVG/1.1/DTD/svg11.dtd">
<svg version="1.1" xmlns="http://www.w3.org/2000/svg" xmlns:xlink="http://www.w3.org/1999/xlink" x="0px" y="0px" viewBox="0 0 256 256" enable-background="new 0 0 256 256" xml:space="preserve">
<metadata> Svg Vector Icons : http://www.onlinewebfonts.com/icon </metadata>
<g><g><path fill="#000000" d="M243.2,12.8c3.4,3.4,3.4,10.1,1.7,11.8L130,137.8c-3.4,1.7-8.5,1.7-11.8-1.7c-3.4-3.4-5.1-8.5-1.7-11.8L231.4,11.1C233.1,9.4,239.8,9.4,243.2,12.8L243.2,12.8z M216.2,105.7v121.7c0,3.4-1.7,5.1-5.1,5.1H28.6c-1.7,0-5.1-1.7-5.1-5.1V46.6c1.7-3.4,3.4-5.1,5.1-5.1H152V28H28.6C18.5,28,10,36.5,10,46.6v180.8c0,10.1,8.5,18.6,18.6,18.6h182.5c10.1,0,18.6-8.5,18.6-18.6V105.7H216.2L216.2,105.7z"/></g></g>
</svg>